<svg xmlns="http://www.w3.org/2000/svg" xmlns:xlink="http://www.w3.org/1999/xlink" width="500" zoomAndPan="magnify" viewBox="0 0 375 374.999991" height="500" preserveAspectRatio="xMidYMid meet" version="1.0"><defs><g/><clipPath id="abb5a00238"><path d="M 21.835938 172.914062 L 88.449219 172.914062 L 88.449219 222.777344 L 21.835938 222.777344 Z M 21.835938 172.914062 " clip-rule="nonzero"/></clipPath><clipPath id="068db8fe48"><path d="M 38.457031 172.914062 L 88.320312 172.914062 L 71.699219 222.777344 L 21.835938 222.777344 Z M 38.457031 172.914062 " clip-rule="nonzero"/></clipPath><clipPath id="d8fc335735"><path d="M 0.835938 0.914062 L 67.449219 0.914062 L 67.449219 50.777344 L 0.835938 50.777344 Z M 0.835938 0.914062 " clip-rule="nonzero"/></clipPath><clipPath id="cc10c5dad0"><path d="M 17.457031 0.914062 L 67.320312 0.914062 L 50.699219 50.777344 L 0.835938 50.777344 Z M 17.457031 0.914062 " clip-rule="nonzero"/></clipPath><clipPath id="b4594f4a11"><rect x="0" width="68" y="0" height="51"/></clipPath><clipPath id="877c43eb42"><path d="M 57.03125 155 L 88.53125 155 L 88.53125 229.878906 L 57.03125 229.878906 Z M 57.03125 155 " clip-rule="nonzero"/></clipPath><clipPath id="e705e1e0be"><path d="M 57.03125 155 L 82 155 L 82 223 L 57.03125 223 Z M 57.03125 155 " clip-rule="nonzero"/></clipPath><clipPath id="4f5198e47c"><rect x="0" width="267" y="0" height="133"/></clipPath></defs><g clip-path="url(#abb5a00238)"><g clip-path="url(#068db8fe48)"><g transform="matrix(1, 0, 0, 1, 21, 172)"><g clip-path="url(#b4594f4a11)"><g clip-path="url(#d8fc335735)"><g clip-path="url(#cc10c5dad0)"><path fill="#000000" d="M 0.835938 0.914062 L 67.253906 0.914062 L 67.253906 50.777344 L 0.835938 50.777344 Z M 0.835938 0.914062 " fill-opacity="1" fill-rule="nonzero"/></g></g></g></g></g></g><g clip-path="url(#877c43eb42)"><path fill="#000000" d="M 85.296875 179.71875 C 87.242188 181.078125 88.511719 183.320312 88.511719 185.847656 L 88.511719 222.003906 C 88.511719 226.140625 85.109375 229.511719 80.933594 229.511719 L 71.347656 229.511719 C 69.257812 229.511719 67.363281 228.667969 65.992188 227.308594 L 65.738281 227.050781 L 59.136719 220.511719 C 57.828125 219.160156 57.03125 217.34375 57.03125 215.335938 L 57.03125 179.179688 C 57.03125 176.652344 58.300781 174.40625 60.246094 173.050781 C 58.300781 171.691406 57.03125 169.445312 57.03125 166.921875 L 57.03125 162.734375 C 57.03125 158.589844 60.433594 155.230469 64.609375 155.230469 L 74.195312 155.230469 C 76.359375 155.230469 78.304688 156.128906 79.6875 157.574219 L 79.804688 157.6875 L 86.550781 164.367188 C 87.773438 165.703125 88.511719 167.46875 88.511719 169.40625 L 88.511719 173.589844 C 88.511719 176.117188 87.242188 178.359375 85.296875 179.71875 Z M 85.296875 179.71875 " fill-opacity="1" fill-rule="nonzero"/></g><g clip-path="url(#e705e1e0be)"><path fill="#000000" d="M 64.609375 222.839844 C 60.433594 222.839844 57.03125 219.46875 57.03125 215.335938 L 57.03125 179.1875 C 57.03125 176.652344 58.300781 174.417969 60.246094 173.058594 C 58.300781 171.691406 57.03125 169.453125 57.03125 166.929688 L 57.03125 162.734375 C 57.03125 158.597656 60.433594 155.230469 64.609375 155.230469 L 74.1875 155.230469 C 78.363281 155.230469 81.765625 158.597656 81.765625 162.734375 L 81.765625 166.929688 C 81.765625 169.453125 80.496094 171.699219 78.558594 173.058594 C 80.496094 174.417969 81.765625 176.660156 81.765625 179.1875 L 81.765625 215.34375 C 81.765625 219.480469 78.363281 222.847656 74.1875 222.847656 L 64.609375 222.847656 Z M 64.609375 222.839844 " fill-opacity="1" fill-rule="nonzero"/></g><path fill="#ffffff" d="M 78.40625 179.1875 L 78.40625 215.34375 C 78.40625 217.644531 76.519531 219.511719 74.195312 219.511719 L 64.617188 219.511719 C 62.292969 219.511719 60.40625 217.644531 60.40625 215.34375 L 60.40625 179.1875 C 60.40625 176.882812 62.292969 175.015625 64.617188 175.015625 L 74.195312 175.015625 C 76.519531 175.015625 78.40625 176.882812 78.40625 179.1875 Z M 78.40625 162.734375 C 78.40625 160.433594 76.519531 158.566406 74.195312 158.566406 L 64.617188 158.566406 C 62.292969 158.566406 60.40625 160.433594 60.40625 162.734375 L 60.40625 166.929688 C 60.40625 169.230469 62.292969 171.097656 64.617188 171.097656 L 74.195312 171.097656 C 76.519531 171.097656 78.40625 169.230469 78.40625 166.929688 Z M 78.40625 162.734375 " fill-opacity="1" fill-rule="nonzero"/><g transform="matrix(1, 0, 0, 1, 78, 121)"><g clip-path="url(#4f5198e47c)"><g fill="#000000" fill-opacity="1"><g transform="translate(1.374484, 100.873458)"><g><path d="M 5.875 0 L 5.875 -50 L 19.78125 -50 L 19.78125 -38.4375 L 17.75 -38.34375 C 18.625 -41.519531 19.921875 -44.035156 21.640625 -45.890625 C 23.367188 -47.753906 25.347656 -49.070312 27.578125 -49.84375 C 29.816406 -50.625 32.050781 -51.015625 34.28125 -51.015625 C 40.03125 -51.015625 44.507812 -49.40625 47.71875 -46.1875 C 50.925781 -42.976562 52.53125 -38.570312 52.53125 -32.96875 L 52.53125 0 L 38.546875 0 L 38.546875 -27.796875 C 38.546875 -31.648438 37.847656 -34.472656 36.453125 -36.265625 C 35.066406 -38.054688 32.890625 -38.953125 29.921875 -38.953125 C 27.691406 -38.953125 25.816406 -38.410156 24.296875 -37.328125 C 22.773438 -36.242188 21.640625 -34.582031 20.890625 -32.34375 C 20.148438 -30.113281 19.78125 -27.207031 19.78125 -23.625 L 19.78125 0 Z M 5.875 0 "/></g></g></g><g fill="#000000" fill-opacity="1"><g transform="translate(50.761721, 100.873458)"><g><path d="M 5.875 0 L 5.875 -50 L 19.78125 -50 L 19.78125 -36.921875 L 16.734375 -34.078125 C 17.203125 -37.523438 18.03125 -40.363281 19.21875 -42.59375 C 20.40625 -44.820312 21.804688 -46.546875 23.421875 -47.765625 C 25.046875 -48.984375 26.738281 -49.828125 28.5 -50.296875 C 30.257812 -50.773438 31.984375 -51.015625 33.671875 -51.015625 C 36.109375 -51.015625 38.523438 -50.554688 40.921875 -49.640625 C 43.328125 -48.734375 45.441406 -47.09375 47.265625 -44.71875 C 49.085938 -42.351562 50.367188 -39.007812 51.109375 -34.6875 L 42.703125 -31.234375 C 43.710938 -36.378906 45.265625 -40.382812 47.359375 -43.25 C 49.460938 -46.125 51.8125 -48.132812 54.40625 -49.28125 C 57.007812 -50.4375 59.628906 -51.015625 62.265625 -51.015625 C 66.597656 -51.015625 70.113281 -50.082031 72.8125 -48.21875 C 75.519531 -46.363281 77.515625 -43.960938 78.796875 -41.015625 C 80.085938 -38.078125 80.734375 -35.019531 80.734375 -31.84375 L 80.734375 0 L 66.734375 0 L 66.734375 -28.5 C 66.734375 -30.863281 66.425781 -32.820312 65.8125 -34.375 C 65.207031 -35.9375 64.332031 -37.085938 63.1875 -37.828125 C 62.039062 -38.578125 60.617188 -38.953125 58.921875 -38.953125 C 56.960938 -38.953125 55.335938 -38.441406 54.046875 -37.421875 C 52.765625 -36.410156 51.800781 -34.851562 51.15625 -32.75 C 50.519531 -30.65625 50.203125 -27.988281 50.203125 -24.75 L 50.203125 0 L 36.3125 0 L 36.3125 -28.59375 C 36.3125 -32.050781 35.664062 -34.640625 34.375 -36.359375 C 33.09375 -38.085938 31.269531 -38.953125 28.90625 -38.953125 C 26.875 -38.953125 25.179688 -38.425781 23.828125 -37.375 C 22.484375 -36.320312 21.472656 -34.765625 20.796875 -32.703125 C 20.117188 -30.640625 19.78125 -27.988281 19.78125 -24.75 L 19.78125 0 Z M 5.875 0 "/></g></g></g><g fill="#000000" fill-opacity="1"><g transform="translate(128.341506, 100.873458)"><g><path d="M 37.53125 0 L 36.515625 -6.6875 L 36.515625 -31.640625 C 36.515625 -34.347656 35.617188 -36.3125 33.828125 -37.53125 C 32.035156 -38.75 29.71875 -39.359375 26.875 -39.359375 C 24.238281 -39.359375 21.484375 -38.847656 18.609375 -37.828125 C 15.734375 -36.816406 13.285156 -35.5 11.265625 -33.875 L 4.765625 -43.515625 C 8.554688 -46.285156 12.3125 -48.226562 16.03125 -49.34375 C 19.75 -50.457031 23.769531 -51.015625 28.09375 -51.015625 C 35.0625 -51.015625 40.503906 -49.289062 44.421875 -45.84375 C 48.347656 -42.394531 50.3125 -37.660156 50.3125 -31.640625 L 50.3125 0 Z M 23.015625 1.015625 C 19.367188 1.015625 16.09375 0.335938 13.1875 -1.015625 C 10.28125 -2.367188 7.976562 -4.3125 6.28125 -6.84375 C 4.59375 -9.382812 3.75 -12.3125 3.75 -15.625 C 3.75 -18.53125 4.359375 -21.03125 5.578125 -23.125 C 6.796875 -25.21875 8.421875 -26.84375 10.453125 -28 C 12.066406 -28.9375 13.890625 -29.609375 15.921875 -30.015625 C 17.953125 -30.421875 20.082031 -30.625 22.3125 -30.625 L 37.625 -30.625 L 37.625 -20.390625 L 24.34375 -20.390625 C 23.394531 -20.390625 22.515625 -20.300781 21.703125 -20.125 C 20.890625 -19.957031 20.144531 -19.640625 19.46875 -19.171875 C 18.925781 -18.765625 18.503906 -18.253906 18.203125 -17.640625 C 17.898438 -17.035156 17.75 -16.363281 17.75 -15.625 C 17.75 -13.925781 18.40625 -12.585938 19.71875 -11.609375 C 21.039062 -10.628906 22.816406 -10.140625 25.046875 -10.140625 C 27.140625 -10.140625 29.050781 -10.578125 30.78125 -11.453125 C 32.507812 -12.335938 33.894531 -13.554688 34.9375 -15.109375 C 35.988281 -16.660156 36.515625 -18.421875 36.515625 -20.390625 L 39.75 -12.78125 C 38.675781 -9.257812 37.242188 -6.5 35.453125 -4.5 C 33.660156 -2.507812 31.695312 -1.09375 29.5625 -0.25 C 27.4375 0.59375 25.253906 1.015625 23.015625 1.015625 Z M 23.015625 1.015625 "/></g></g></g><g fill="#000000" fill-opacity="1"><g transform="translate(175.49767, 100.873458)"><g><path d="M 28.59375 1.015625 C 24.132812 1.015625 20.296875 0.304688 17.078125 -1.109375 C 13.867188 -2.535156 11.265625 -4.460938 9.265625 -6.890625 C 7.273438 -9.328125 5.820312 -12.082031 4.90625 -15.15625 C 4 -18.238281 3.546875 -21.4375 3.546875 -24.75 C 3.546875 -27.925781 4 -31.066406 4.90625 -34.171875 C 5.820312 -37.285156 7.226562 -40.109375 9.125 -42.640625 C 11.019531 -45.179688 13.519531 -47.210938 16.625 -48.734375 C 19.738281 -50.253906 23.460938 -51.015625 27.796875 -51.015625 C 31.648438 -51.015625 35.046875 -50.351562 37.984375 -49.03125 C 40.921875 -47.71875 43.367188 -45.894531 45.328125 -43.5625 C 47.296875 -41.226562 48.769531 -38.472656 49.75 -35.296875 C 50.726562 -32.117188 51.21875 -28.703125 51.21875 -25.046875 C 51.21875 -24.441406 51.195312 -23.734375 51.15625 -22.921875 C 51.125 -22.109375 51.039062 -21.195312 50.90625 -20.1875 L 17.4375 -20.1875 C 17.84375 -17.070312 19.160156 -14.753906 21.390625 -13.234375 C 23.628906 -11.710938 26.300781 -10.953125 29.40625 -10.953125 C 31.914062 -10.953125 34.421875 -11.390625 36.921875 -12.265625 C 39.421875 -13.148438 41.617188 -14.40625 43.515625 -16.03125 L 49.90625 -6.28125 C 47.394531 -4.53125 45.070312 -3.113281 42.9375 -2.03125 C 40.8125 -0.945312 38.617188 -0.171875 36.359375 0.296875 C 34.097656 0.773438 31.507812 1.015625 28.59375 1.015625 Z M 37.53125 -27.1875 C 37.664062 -27.726562 37.78125 -28.265625 37.875 -28.796875 C 37.976562 -29.335938 38.03125 -29.847656 38.03125 -30.328125 C 38.03125 -31.679688 37.773438 -32.914062 37.265625 -34.03125 C 36.765625 -35.144531 36.070312 -36.109375 35.1875 -36.921875 C 34.3125 -37.734375 33.265625 -38.359375 32.046875 -38.796875 C 30.828125 -39.234375 29.476562 -39.453125 28 -39.453125 C 25.625 -39.453125 23.675781 -38.992188 22.15625 -38.078125 C 20.632812 -37.171875 19.484375 -36.039062 18.703125 -34.6875 C 17.929688 -33.332031 17.441406 -31.945312 17.234375 -30.53125 L 42.1875 -30.53125 Z M 37.53125 -27.1875 "/></g></g></g><g fill="#000000" fill-opacity="1"><g transform="translate(222.045353, 100.873458)"><g><path d="M 5.875 0 L 5.875 -50 L 19.875 -50 L 19.875 -36.40625 L 17.953125 -36.3125 C 18.148438 -39.144531 18.972656 -41.675781 20.421875 -43.90625 C 21.878906 -46.144531 23.722656 -47.890625 25.953125 -49.140625 C 28.191406 -50.390625 30.492188 -51.015625 32.859375 -51.015625 C 34.546875 -51.015625 36.164062 -50.773438 37.71875 -50.296875 C 39.28125 -49.828125 40.941406 -49.050781 42.703125 -47.96875 L 36 -35.390625 C 35.257812 -35.867188 34.296875 -36.289062 33.109375 -36.65625 C 31.929688 -37.03125 30.734375 -37.21875 29.515625 -37.21875 C 28.296875 -37.21875 27.109375 -36.976562 25.953125 -36.5 C 24.804688 -36.03125 23.796875 -35.335938 22.921875 -34.421875 C 22.046875 -33.515625 21.335938 -32.316406 20.796875 -30.828125 C 20.453125 -29.878906 20.195312 -28.675781 20.03125 -27.21875 C 19.863281 -25.769531 19.78125 -23.628906 19.78125 -20.796875 L 19.78125 0 Z M 5.875 0 "/></g></g></g></g></g></svg>